<svg width="56" height="56" viewBox="0 0 56 56" fill="none" xmlns="http://www.w3.org/2000/svg">
<mask id="mask0_1_679" style="mask-type:alpha" maskUnits="userSpaceOnUse" x="0" y="0" width="56" height="56">
<rect width="56" height="56" fill="#FDF0A1"/>
</mask>
<g mask="url(#mask0_1_679)">
<path d="M9.275 46.2L7.29167 45.3833C6.08612 44.8778 5.27917 44.0028 4.87084 42.7583C4.4625 41.5139 4.53056 40.2889 5.075 39.0833L9.275 29.9833V46.2ZM18.6083 51.3333C17.325 51.3333 16.2264 50.8764 15.3125 49.9625C14.3986 49.0486 13.9417 47.95 13.9417 46.6667V32.6667L20.125 49.8167C20.2417 50.0889 20.3583 50.3514 20.475 50.6042C20.5917 50.8569 20.7472 51.1 20.9417 51.3333H18.6083ZM30.625 51.1C29.3806 51.5667 28.175 51.5083 27.0083 50.925C25.8417 50.3417 25.025 49.4278 24.5583 48.1833L14.175 19.7167C13.7083 18.4722 13.7472 17.2569 14.2917 16.0708C14.8361 14.8847 15.7306 14.0778 16.975 13.65L34.5917 7.23334C35.8361 6.76667 37.0417 6.825 38.2083 7.40834C39.375 7.99167 40.1917 8.90556 40.6583 10.15L51.0417 38.6167C51.5083 39.8611 51.4694 41.0764 50.925 42.2625C50.3806 43.4486 49.4861 44.2556 48.2417 44.6833L30.625 51.1ZM25.6083 23.3333C26.2694 23.3333 26.8236 23.1097 27.2708 22.6625C27.7181 22.2153 27.9417 21.6611 27.9417 21C27.9417 20.3389 27.7181 19.7847 27.2708 19.3375C26.8236 18.8903 26.2694 18.6667 25.6083 18.6667C24.9472 18.6667 24.3931 18.8903 23.9458 19.3375C23.4986 19.7847 23.275 20.3389 23.275 21C23.275 21.6611 23.4986 22.2153 23.9458 22.6625C24.3931 23.1097 24.9472 23.3333 25.6083 23.3333ZM28.9917 46.6667L46.6083 40.25L36.225 11.6667L18.6083 18.0833L28.9917 46.6667Z" fill="#FDF0A1"/>
</g>
</svg>
