<svg width="32" height="32" viewBox="0 0 32 32" fill="none" xmlns="http://www.w3.org/2000/svg">
<path d="M16.0305 32H15.9601C7.15978 32 0 24.8381 0 16.0352V15.9648C0 7.16189 7.15978 0 15.9601 0H16.0305C24.8308 0 31.9906 7.16189 31.9906 15.9648V16.0352C31.9906 24.8381 24.8308 32 16.0305 32ZM15.9601 1.08317C7.75643 1.08317 1.08285 7.75871 1.08285 15.9648V16.0352C1.08285 24.2413 7.75643 30.9168 15.9601 30.9168H16.0305C24.2341 30.9168 30.9077 24.2413 30.9077 16.0352V15.9648C30.9077 7.75871 24.2341 1.08317 16.0305 1.08317H15.9601Z" fill="white"/>
<path d="M23.7295 8.9026C22.3067 8.24945 20.782 7.76852 19.187 7.4934C19.1578 7.48798 19.1285 7.50099 19.1144 7.52806C18.9184 7.87684 18.7008 8.33286 18.5492 8.6903C16.8339 8.43359 15.1274 8.43359 13.4468 8.6903C13.2941 8.32419 13.0689 7.87684 12.8718 7.52806C12.8566 7.50207 12.8274 7.48906 12.7993 7.4934C11.2053 7.76852 9.67959 8.24945 8.25672 8.9026C8.24481 8.90801 8.23398 8.91668 8.2264 8.92859C5.33303 13.2526 4.54036 17.4705 4.92911 21.6363C4.93127 21.6569 4.9421 21.6764 4.95835 21.6883C6.86741 23.091 8.71693 23.9424 10.5318 24.5067C10.561 24.5154 10.5913 24.5045 10.6098 24.4807C11.0386 23.8947 11.4219 23.2762 11.75 22.6252C11.7695 22.5873 11.75 22.5418 11.711 22.5267C11.1035 22.296 10.5264 22.0154 9.96977 21.697C9.92537 21.671 9.92214 21.6081 9.96221 21.5778C10.0792 21.4901 10.1961 21.3991 10.3076 21.307C10.3282 21.2897 10.3564 21.2864 10.3802 21.2973C14.0326 22.9653 17.9872 22.9653 21.5963 21.2973C21.6201 21.2854 21.6483 21.2897 21.6689 21.3059C21.7804 21.398 21.8973 21.4901 22.0154 21.5778C22.0554 21.6081 22.0533 21.671 22.0089 21.697C21.4534 22.0219 20.8751 22.297 20.2666 22.5267C20.2265 22.5418 20.2092 22.5873 20.2287 22.6263C20.5644 23.2762 20.9466 23.8936 21.3678 24.4807C21.3852 24.5056 21.4166 24.5165 21.4458 24.5078C23.2693 23.9435 25.1188 23.0921 27.0279 21.6894C27.0441 21.6775 27.055 21.658 27.0571 21.6385C27.5227 16.8227 26.2775 12.6395 23.7577 8.93076C23.7512 8.91885 23.7414 8.9091 23.7284 8.90368L23.7295 8.9026ZM12.2936 19.0995C11.1934 19.0995 10.2881 18.09 10.2881 16.8498C10.2881 15.6096 11.1771 14.6001 12.2936 14.6001C13.41 14.6001 14.3174 15.6193 14.299 16.8498C14.299 18.09 13.41 19.0995 12.2936 19.0995ZM19.71 19.0995C18.6098 19.0995 17.7046 18.09 17.7046 16.8498C17.7046 15.6096 18.5936 14.6001 19.71 14.6001C20.8264 14.6001 21.7338 15.6193 21.7154 16.8498C21.7154 18.09 20.8361 19.0995 19.71 19.0995Z" fill="white"/>
</svg>
