<svg width="24" height="25" viewBox="0 0 24 25" fill="none" xmlns="http://www.w3.org/2000/svg">
<mask id="mask0_2135_1584" style="mask-type:alpha" maskUnits="userSpaceOnUse" x="0" y="0" width="24" height="25">
<rect y="0.5" width="24" height="24" fill="#29EEFF"/>
</mask>
<g mask="url(#mask0_2135_1584)">
<path d="M11 21.5V13.525C9.93333 13.525 8.90833 13.3208 7.925 12.9125C6.94167 12.5042 6.075 11.925 5.325 11.175C4.575 10.425 4 9.55833 3.6 8.575C3.2 7.59167 3 6.56667 3 5.5V3.5H5C6.05 3.5 7.06667 3.70417 8.05 4.1125C9.03333 4.52083 9.9 5.1 10.65 5.85C11.1667 6.36667 11.5958 6.93333 11.9375 7.55C12.2792 8.16667 12.5417 8.825 12.725 9.525C12.8083 9.40833 12.9 9.29583 13 9.1875C13.1 9.07917 13.2083 8.96667 13.325 8.85C14.075 8.1 14.9417 7.52083 15.925 7.1125C16.9083 6.70417 17.9333 6.5 19 6.5H21V8.5C21 9.56667 20.7958 10.5917 20.3875 11.575C19.9792 12.5583 19.4 13.425 18.65 14.175C17.9 14.925 17.0375 15.5 16.0625 15.9C15.0875 16.3 14.0667 16.5 13 16.5V21.5H11ZM11 11.5C11 10.7 10.8458 9.9375 10.5375 9.2125C10.2292 8.4875 9.79167 7.84167 9.225 7.275C8.65833 6.70833 8.0125 6.27083 7.2875 5.9625C6.5625 5.65417 5.8 5.5 5 5.5C5 6.3 5.15 7.06667 5.45 7.8C5.75 8.53333 6.18333 9.18333 6.75 9.75C7.31667 10.3167 7.96667 10.75 8.7 11.05C9.43333 11.35 10.2 11.5 11 11.5ZM13 14.5C13.8 14.5 14.5625 14.35 15.2875 14.05C16.0125 13.75 16.6583 13.3167 17.225 12.75C17.7917 12.1833 18.2292 11.5333 18.5375 10.8C18.8458 10.0667 19 9.3 19 8.5C18.2 8.5 17.4333 8.65417 16.7 8.9625C15.9667 9.27083 15.3167 9.70833 14.75 10.275C14.1833 10.8417 13.75 11.4875 13.45 12.2125C13.15 12.9375 13 13.7 13 14.5Z" fill="#29EEFF"/>
</g>
</svg>
