<svg width="56" height="56" viewBox="0 0 56 56" fill="none" xmlns="http://www.w3.org/2000/svg">
<mask id="mask0_1_660" style="mask-type:alpha" maskUnits="userSpaceOnUse" x="0" y="0" width="56" height="56">
<rect width="56" height="56" fill="#D9D9D9"/>
</mask>
<g mask="url(#mask0_1_660)">
<path d="M28 33.775L32.4333 36.4583C32.8611 36.7306 33.2889 36.7208 33.7167 36.4292C34.1444 36.1375 34.3 35.7389 34.1833 35.2333L33.0167 30.1583L36.9833 26.7167C37.3722 26.3667 37.4889 25.9486 37.3333 25.4625C37.1778 24.9764 36.8278 24.7139 36.2833 24.675L31.0917 24.2667L29.05 19.4833C28.8556 19.0167 28.5056 18.7833 28 18.7833C27.4944 18.7833 27.1444 19.0167 26.95 19.4833L24.9083 24.2667L19.7167 24.675C19.1722 24.7139 18.8222 24.9764 18.6667 25.4625C18.5111 25.9486 18.6278 26.3667 19.0167 26.7167L22.9833 30.1583L21.8167 35.2333C21.7 35.7389 21.8556 36.1375 22.2833 36.4292C22.7111 36.7208 23.1389 36.7306 23.5667 36.4583L28 33.775ZM20.1833 46.6667H14C12.7167 46.6667 11.6181 46.2097 10.7042 45.2958C9.79028 44.3819 9.33333 43.2833 9.33333 42V35.8167L4.84167 31.2667C4.41389 30.8 4.08333 30.2847 3.85 29.7208C3.61667 29.1569 3.5 28.5833 3.5 28C3.5 27.4167 3.61667 26.8431 3.85 26.2792C4.08333 25.7153 4.41389 25.2 4.84167 24.7333L9.33333 20.1833V14C9.33333 12.7167 9.79028 11.6181 10.7042 10.7042C11.6181 9.79028 12.7167 9.33333 14 9.33333H20.1833L24.7333 4.84167C25.2 4.41389 25.7153 4.08333 26.2792 3.85C26.8431 3.61667 27.4167 3.5 28 3.5C28.5833 3.5 29.1569 3.61667 29.7208 3.85C30.2847 4.08333 30.8 4.41389 31.2667 4.84167L35.8167 9.33333H42C43.2833 9.33333 44.3819 9.79028 45.2958 10.7042C46.2097 11.6181 46.6667 12.7167 46.6667 14V20.1833L51.1583 24.7333C51.5861 25.2 51.9167 25.7153 52.15 26.2792C52.3833 26.8431 52.5 27.4167 52.5 28C52.5 28.5833 52.3833 29.1569 52.15 29.7208C51.9167 30.2847 51.5861 30.8 51.1583 31.2667L46.6667 35.8167V42C46.6667 43.2833 46.2097 44.3819 45.2958 45.2958C44.3819 46.2097 43.2833 46.6667 42 46.6667H35.8167L31.2667 51.1583C30.8 51.5861 30.2847 51.9167 29.7208 52.15C29.1569 52.3833 28.5833 52.5 28 52.5C27.4167 52.5 26.8431 52.3833 26.2792 52.15C25.7153 51.9167 25.2 51.5861 24.7333 51.1583L20.1833 46.6667ZM22.1667 42L28 47.8333L33.8333 42H42V33.8333L47.8333 28L42 22.1667V14H33.8333L28 8.16667L22.1667 14H14V22.1667L8.16667 28L14 33.8333V42H22.1667Z" fill="#FDF0A1"/>
</g>
</svg>
