<svg width="56" height="56" viewBox="0 0 56 56" fill="none" xmlns="http://www.w3.org/2000/svg">
<mask id="mask0_1_672" style="mask-type:alpha" maskUnits="userSpaceOnUse" x="0" y="0" width="56" height="56">
<rect width="56" height="56" fill="#FDF0A1"/>
</mask>
<g mask="url(#mask0_1_672)">
<path d="M14 46.6667C12.0556 46.6667 10.4028 45.9861 9.04167 44.625C7.68056 43.2639 7 41.6111 7 39.6667C7 37.7222 7.68056 36.0694 9.04167 34.7083C10.4028 33.3472 12.0556 32.6667 14 32.6667C15.9444 32.6667 17.5972 33.3472 18.9583 34.7083C20.3194 36.0694 21 37.7222 21 39.6667C21 41.6111 20.3194 43.2639 18.9583 44.625C17.5972 45.9861 15.9444 46.6667 14 46.6667ZM42 46.6667C40.0556 46.6667 38.4028 45.9861 37.0417 44.625C35.6806 43.2639 35 41.6111 35 39.6667C35 37.7222 35.6806 36.0694 37.0417 34.7083C38.4028 33.3472 40.0556 32.6667 42 32.6667C43.9444 32.6667 45.5972 33.3472 46.9583 34.7083C48.3194 36.0694 49 37.7222 49 39.6667C49 41.6111 48.3194 43.2639 46.9583 44.625C45.5972 45.9861 43.9444 46.6667 42 46.6667ZM28 23.3333C26.0556 23.3333 24.4028 22.6528 23.0417 21.2917C21.6806 19.9306 21 18.2778 21 16.3333C21 14.3889 21.6806 12.7361 23.0417 11.375C24.4028 10.0139 26.0556 9.33334 28 9.33334C29.9444 9.33334 31.5972 10.0139 32.9583 11.375C34.3194 12.7361 35 14.3889 35 16.3333C35 18.2778 34.3194 19.9306 32.9583 21.2917C31.5972 22.6528 29.9444 23.3333 28 23.3333Z" fill="#FDF0A1"/>
</g>
</svg>
