<svg width="32" height="32" viewBox="0 0 32 32" fill="none" xmlns="http://www.w3.org/2000/svg">
<path d="M16.0305 32H15.9601C7.1598 32 0 24.8381 0 16.0352V15.9648C0 7.16189 7.1598 0 15.9601 0H16.0305C24.8308 0 31.9906 7.16189 31.9906 15.9648V16.0352C31.9906 24.8381 24.8308 32 16.0305 32ZM15.9601 1.08317C7.75644 1.08317 1.08285 7.75871 1.08285 15.9648V16.0352C1.08285 24.2413 7.75644 30.9168 15.9601 30.9168H16.0305C24.2341 30.9168 30.9077 24.2413 30.9077 16.0352V15.9648C30.9077 7.75871 24.2341 1.08317 16.0305 1.08317H15.9601Z" fill="white"/>
<path d="M6.81003 7.54102L13.9373 17.0729L6.76562 24.823H8.38016L14.6596 18.038L19.7327 24.823H25.226L17.6981 14.7549L24.3738 7.54102H22.7593L16.9769 13.7898L12.3044 7.54102H6.8111H6.81003ZM9.18362 8.73036H11.7067L22.8503 23.6336H20.3272L9.18362 8.73036Z" fill="white"/>
</svg>
